<!-- Generated by IcoMoon.io -->
<svg version="1.1" xmlns="http://www.w3.org/2000/svg" width="16" height="16" viewBox="0 0 16 16">
<title>description</title>
<path fill="#595959" d="M8 12l-1 0-0-7 1-0 0 7z"></path>
<path fill="#595959" d="M8 4l-1 0-0-1 1-0 0 1z"></path>
<path fill="#595959" d="M6 11h3v1h-3v-1z"></path>
<path fill="#595959" d="M7.501 0c-4.136 0-7.501 3.364-7.501 7.5s3.365 7.5 7.501 7.5c4.135 0 7.499-3.364 7.499-7.5s-3.364-7.5-7.499-7.5zM7.501 14c-3.585 0-6.501-2.916-6.501-6.5s2.916-6.5 6.501-6.5c3.584 0 6.499 2.916 6.499 6.5s-2.915 6.5-6.499 6.5z"></path>
</svg>
